<svg xmlns="http://www.w3.org/2000/svg" width="682.667" height="682.667">
  <path d="M341.776 62.064l-113.147 268.15L99.723 201.306 341.34 61.815zM582.913 201.29L464.87 308.454 342.723 62.608z" fill="#42e2f6"/>
  <path d="M229.313 332L99.055 481.455v-279.76l.668-.39 128.906 128.908z" fill="#1ecfe3"/>
  <path d="M341.341 621.333L99.055 481.455 229.313 332z" fill="#00bdd5"/>
  <path d="M583.612 481.454l-242.27 139.88 123.527-312.88z" fill="#009bc8"/>
  <path d="M583.612 201.695v279.76L464.869 308.453l118.044-107.162z" fill="#00bdd5"/>
  <path d="M464.87 308.454l-236.24 21.758L341.776 62.064l.948.544z" fill="#dff9fe"/>
  <path d="M464.87 308.454l-123.528 312.88L229.314 332l-.684-1.788z" fill="#42e2f6"/>
</svg>
